<svg xmlns="http://www.w3.org/2000/svg" width="1920" height="1080" viewBox="0 0 1920 1080">
  <defs>
    <pattern id="grain" width="8" height="8" patternUnits="userSpaceOnUse"><path d="M0 1h1M5 5h1" stroke="#183029" stroke-opacity=".07"/></pattern>
    <filter id="soft"><feGaussianBlur stdDeviation="20"/></filter>
    <marker id="arrow" viewBox="0 0 10 10" refX="8" refY="5" markerWidth="7" markerHeight="7" orient="auto-start-reverse"><path d="M0 0L10 5 0 10z" fill="#29443a"/></marker>
  </defs>
  <rect width="1920" height="1080" fill="#e8e3d8"/><rect width="1920" height="1080" fill="url(#grain)"/>
  <text x="110" y="120" fill="#1e2a27" font-family="Georgia,serif" font-size="74" letter-spacing="-4">Choice Atlas</text>
  <text x="114" y="164" fill="#647068" font-family="monospace" font-size="22" letter-spacing="2">BUILT WITH CODEX · A LIVE GPT-5.6 UNCERTAINTY CARTOGRAPHER</text>
  <path d="M112 207H1808" stroke="#aeb2a9"/>
  <text x="112" y="270" fill="#a84c2d" font-family="monospace" font-size="19" letter-spacing="2">ONE HUMAN DECISION · FIVE GUARDED HANDSHAKES</text>
  <g font-family="Georgia,serif" fill="#1e2a27">
    <rect x="110" y="370" width="270" height="290" rx="2" fill="#f6f2e9" stroke="#aeb2a9"/>
    <circle cx="164" cy="424" r="25" fill="#d8e1d9" stroke="#496b83" stroke-width="2"/>
    <text x="208" y="427" font-size="30">1. Set the field</text><text x="142" y="492" font-size="22">Two routes</text><text x="142" y="531" font-size="22">Priorities</text><text x="142" y="570" font-size="22">Time horizon</text><text x="142" y="625" fill="#647068" font-family="Arial" font-size="17">A dilemma stays editable.</text>
    <rect x="455" y="370" width="270" height="290" rx="2" fill="#e0e7dd" stroke="#78907e"/>
    <circle cx="509" cy="424" r="25" fill="#56735d"/><text x="500" y="432" font-family="Arial" font-size="20" fill="#fffdf6">2</text>
    <text x="553" y="427" font-size="30">Judge gate</text><text x="487" y="492" font-size="22">Access code</text><text x="487" y="531" font-size="22">Signed session</text><text x="487" y="570" font-size="22">HttpOnly cookie</text><text x="487" y="625" fill="#647068" font-family="Arial" font-size="17">No code in a URL.</text>
    <rect x="800" y="370" width="270" height="290" rx="2" fill="#f0e4d9" stroke="#bd8a72"/>
    <circle cx="854" cy="424" r="25" fill="#a84c2d"/><text x="845" y="432" font-family="Arial" font-size="20" fill="#fffdf6">3</text>
    <text x="898" y="427" font-size="30">GPT-5.6</text><text x="832" y="492" font-size="22">Responses API</text><text x="832" y="531" font-size="22">Structured map</text><text x="832" y="570" font-size="22">Server-only key</text><text x="832" y="625" fill="#647068" font-family="Arial" font-size="17">Maps, never decides.</text>
    <rect x="1145" y="370" width="270" height="290" rx="2" fill="#e0e7dd" stroke="#78907e"/>
    <circle cx="1199" cy="424" r="25" fill="#56735d"/><text x="1190" y="432" font-family="Arial" font-size="20" fill="#fffdf6">4</text>
    <text x="1243" y="427" font-size="30">FutureMap</text><text x="1177" y="492" font-size="22">Zod validates</text><text x="1177" y="531" font-size="22">Input integrity</text><text x="1177" y="570" font-size="22">No recommendation</text><text x="1177" y="625" fill="#647068" font-family="Arial" font-size="17">Invalid output stops here.</text>
    <rect x="1490" y="370" width="310" height="290" rx="2" fill="#dce4d8" stroke="#496b83"/>
    <circle cx="1544" cy="424" r="25" fill="#496b83"/><text x="1535" y="432" font-family="Arial" font-size="20" fill="#fffdf6">5</text>
    <text x="1588" y="427" font-size="30">Decision weather</text><text x="1522" y="492" font-size="22">Known ground</text><text x="1522" y="531" font-size="22">Trade-off current</text><text x="1522" y="570" font-size="22">Fogged unknowns</text><text x="1522" y="625" fill="#647068" font-family="Arial" font-size="17">The person keeps agency.</text>
  </g>
  <g fill="none" stroke="#29443a" stroke-width="3" marker-end="url(#arrow)"><path d="M382 514H445"/><path d="M727 514H790"/><path d="M1072 514H1135"/><path d="M1417 514H1480"/></g>
  <g transform="translate(110 770)"><rect width="1690" height="180" fill="#1e2a27"/><text x="34" y="58" fill="#e5d3a0" font-family="monospace" font-size="18" letter-spacing="2">WHY THIS MATTERS</text><text x="34" y="123" fill="#fffdf6" font-family="Georgia,serif" font-size="39">A family gets a clearer conversation—not a machine-made answer.</text><text x="1210" y="58" fill="#b9c7be" font-family="monospace" font-size="18">CODEX-BUILT · 34 TESTS · LIVE PATH</text><text x="1210" y="113" fill="#fffdf6" font-family="Georgia,serif" font-size="28">“Not yet” is allowed.</text></g>
</svg>
